<svg width="69" height="79" viewBox="0 0 69 79" fill="none" xmlns="http://www.w3.org/2000/svg">
<g clip-path="url(#clip0_19_371)">
<path d="M1.44782 36.0129C-0.4774 37.9416 -0.4774 41.0738 1.44782 43.0025L26.0907 67.69C28.0159 69.6188 31.1425 69.6188 33.0677 67.69C34.9929 65.7613 34.9929 62.6291 33.0677 60.7004L16.8188 44.4375H64.0715C66.7976 44.4375 69.0001 42.2311 69.0001 39.5C69.0001 36.7689 66.7976 34.5625 64.0715 34.5625H16.8342L33.0523 18.2996C34.9775 16.3709 34.9775 13.2387 33.0523 11.31C31.1271 9.38125 28.0005 9.38125 26.0753 11.31L1.43242 35.9975L1.44782 36.0129Z" fill="#343F52"/>
</g>
<defs>
<clipPath id="clip0_19_371">
<rect width="69" height="79" fill="white"/>
</clipPath>
</defs>
</svg>
