<svg width="72" height="72" viewBox="0 0 72 72" fill="none" xmlns="http://www.w3.org/2000/svg">
<path d="M25.875 6.75H46.125C46.7438 6.75 47.25 7.25625 47.25 7.875V13.5H24.75V7.875C24.75 7.25625 25.2562 6.75 25.875 6.75ZM18 7.875V13.5H9C4.03594 13.5 0 17.5359 0 22.5V36H27H45H72V22.5C72 17.5359 67.9641 13.5 63 13.5H54V7.875C54 3.52969 50.4703 0 46.125 0H25.875C21.5297 0 18 3.52969 18 7.875ZM72 40.5H45V45C45 47.4891 42.9891 49.5 40.5 49.5H31.5C29.0109 49.5 27 47.4891 27 45V40.5H0V58.5C0 63.4641 4.03594 67.5 9 67.5H63C67.9641 67.5 72 63.4641 72 58.5V40.5Z" fill="#343F52"/>
</svg>
