<svg width="66" height="76" viewBox="0 0 66 76" fill="none" xmlns="http://www.w3.org/2000/svg">
<g clip-path="url(#clip0_1_4)">
<path d="M0 68.3571C0 72.2612 3.16741 75.4286 7.07143 75.4286H58.9286C62.8326 75.4286 66 72.2612 66 68.3571V28.2857H0V68.3571ZM47.1429 39.4821C47.1429 38.5098 47.9384 37.7143 48.9107 37.7143H54.8036C55.7759 37.7143 56.5714 38.5098 56.5714 39.4821V45.375C56.5714 46.3473 55.7759 47.1429 54.8036 47.1429H48.9107C47.9384 47.1429 47.1429 46.3473 47.1429 45.375V39.4821ZM47.1429 58.3393C47.1429 57.367 47.9384 56.5714 48.9107 56.5714H54.8036C55.7759 56.5714 56.5714 57.367 56.5714 58.3393V64.2321C56.5714 65.2045 55.7759 66 54.8036 66H48.9107C47.9384 66 47.1429 65.2045 47.1429 64.2321V58.3393ZM28.2857 39.4821C28.2857 38.5098 29.0813 37.7143 30.0536 37.7143H35.9464C36.9188 37.7143 37.7143 38.5098 37.7143 39.4821V45.375C37.7143 46.3473 36.9188 47.1429 35.9464 47.1429H30.0536C29.0813 47.1429 28.2857 46.3473 28.2857 45.375V39.4821ZM28.2857 58.3393C28.2857 57.367 29.0813 56.5714 30.0536 56.5714H35.9464C36.9188 56.5714 37.7143 57.367 37.7143 58.3393V64.2321C37.7143 65.2045 36.9188 66 35.9464 66H30.0536C29.0813 66 28.2857 65.2045 28.2857 64.2321V58.3393ZM9.42857 39.4821C9.42857 38.5098 10.2241 37.7143 11.1964 37.7143H17.0893C18.0616 37.7143 18.8571 38.5098 18.8571 39.4821V45.375C18.8571 46.3473 18.0616 47.1429 17.0893 47.1429H11.1964C10.2241 47.1429 9.42857 46.3473 9.42857 45.375V39.4821ZM9.42857 58.3393C9.42857 57.367 10.2241 56.5714 11.1964 56.5714H17.0893C18.0616 56.5714 18.8571 57.367 18.8571 58.3393V64.2321C18.8571 65.2045 18.0616 66 17.0893 66H11.1964C10.2241 66 9.42857 65.2045 9.42857 64.2321V58.3393ZM58.9286 9.42857H51.8571V2.35714C51.8571 1.06071 50.7964 0 49.5 0H44.7857C43.4893 0 42.4286 1.06071 42.4286 2.35714V9.42857H23.5714V2.35714C23.5714 1.06071 22.5107 0 21.2143 0H16.5C15.2036 0 14.1429 1.06071 14.1429 2.35714V9.42857H7.07143C3.16741 9.42857 0 12.596 0 16.5V23.5714H66V16.5C66 12.596 62.8326 9.42857 58.9286 9.42857Z" fill="#343F52"/>
</g>
<defs>
<clipPath id="clip0_1_4">
<rect width="66" height="75.4286" fill="white"/>
</clipPath>
</defs>
</svg>
