<svg width="86" height="77" viewBox="0 0 86 77" fill="none" xmlns="http://www.w3.org/2000/svg">
<g clip-path="url(#clip0_1_8)">
<path d="M9.55556 0C4.28507 0 0 4.28507 0 9.55556V66.8889C0 72.1594 4.28507 76.4444 9.55556 76.4444H47.7778C53.0483 76.4444 57.3333 72.1594 57.3333 66.8889V64.0073C56.9302 64.1715 56.5271 64.3059 56.109 64.4104L47.1358 66.65C46.6878 66.7545 46.2399 66.8292 45.792 66.859C45.6576 66.874 45.5233 66.8889 45.3889 66.8889H35.8333C34.9226 66.8889 34.1014 66.3813 33.6983 65.575L32.3844 62.9323C32.1306 62.4247 31.6229 62.1111 31.0705 62.1111C30.5181 62.1111 29.9955 62.4247 29.7566 62.9323L28.4427 65.575C28.0097 66.4559 27.0691 66.9785 26.0986 66.8889C25.1281 66.7993 24.292 66.1274 24.0233 65.2017L21.5 56.8854L20.0368 61.7826C19.126 64.8135 16.334 66.8889 13.1687 66.8889H11.9444C10.6306 66.8889 9.55556 65.8139 9.55556 64.5C9.55556 63.1861 10.6306 62.1111 11.9444 62.1111H13.1687C14.2288 62.1111 15.1545 61.4243 15.4531 60.409L17.6778 53.0184C18.1854 51.3312 19.7382 50.1667 21.5 50.1667C23.2618 50.1667 24.8146 51.3312 25.3222 53.0184L27.0542 58.7816C28.159 57.8559 29.5625 57.3333 31.0556 57.3333C33.4295 57.3333 35.5944 58.6771 36.6545 60.7972L37.3115 62.1111H38.6403C38.1774 60.7972 38.0878 59.3639 38.4312 57.9604L40.6708 48.9872C41.0889 47.3 41.9549 45.7771 43.1792 44.5528L57.3333 30.3986V23.8889H38.2222C35.5795 23.8889 33.4444 21.7538 33.4444 19.1111V0H9.55556ZM38.2222 0V19.1111H57.3333L38.2222 0ZM82.0882 20.858C79.759 18.5288 75.9816 18.5288 73.6375 20.858L69.2479 25.2476L79.8486 35.8483L84.2382 31.4587C86.5674 29.1295 86.5674 25.3521 84.2382 23.008L82.0882 20.858ZM46.5684 47.9271C45.9562 48.5392 45.5233 49.3007 45.3142 50.1517L43.0747 59.125C42.8656 59.9462 43.1045 60.7972 43.7017 61.3944C44.299 61.9917 45.15 62.2306 45.9712 62.0215L54.9444 59.7819C55.7806 59.5729 56.5569 59.1399 57.1691 58.5278L76.4594 39.2226L65.8587 28.6219L46.5684 47.9271Z" fill="#343F52"/>
</g>
<defs>
<clipPath id="clip0_1_8">
<rect width="86" height="76.4444" fill="white"/>
</clipPath>
</defs>
</svg>
