<svg width="72" height="72" viewBox="0 0 72 72" fill="none" xmlns="http://www.w3.org/2000/svg">
<path d="M69.8691 12.2961C72.6803 9.48493 72.6803 4.91957 69.8691 2.10839C67.0579 -0.702796 62.4926 -0.702796 59.6814 2.10839L36 25.8123L12.2961 2.13088C9.48493 -0.680306 4.91957 -0.680306 2.10839 2.13088C-0.702796 4.94206 -0.702796 9.50742 2.10839 12.3186L25.8123 36L2.13088 59.7039C-0.680306 62.5151 -0.680306 67.0804 2.13088 69.8916C4.94206 72.7028 9.50742 72.7028 12.3186 69.8916L36 46.1877L59.7039 69.8691C62.5151 72.6803 67.0804 72.6803 69.8916 69.8691C72.7028 67.0579 72.7028 62.4926 69.8916 59.6814L46.1877 36L69.8691 12.2961Z" fill="#343F52"/>
</svg>
