<svg width="54" height="72" viewBox="0 0 54 72" fill="none" xmlns="http://www.w3.org/2000/svg">
<g clip-path="url(#clip0_23_181)">
<path d="M45 65.25C46.2375 65.25 47.25 64.2375 47.25 63V22.5H36C33.5109 22.5 31.5 20.4891 31.5 18V6.75H9C7.7625 6.75 6.75 7.7625 6.75 9V63C6.75 64.2375 7.7625 65.25 9 65.25H45ZM0 9C0 4.03594 4.03594 0 9 0H32.2734C34.6641 0 36.9562 0.942188 38.6437 2.62969L51.3703 15.3562C53.0578 17.0437 54 19.3359 54 21.7266V63C54 67.9641 49.9641 72 45 72H9C4.03594 72 0 67.9641 0 63V9Z" fill="#343F52"/>
</g>
<defs>
<clipPath id="clip0_23_181">
<rect width="54" height="72" fill="white"/>
</clipPath>
</defs>
</svg>
