<svg width="76" height="76" viewBox="0 0 76 76" fill="none" xmlns="http://www.w3.org/2000/svg">
<path d="M40.375 14.25C28.7078 14.25 18.8367 21.8945 15.482 32.4336C20.4695 29.9102 26.0953 28.5 32.0625 28.5H45.125C46.4313 28.5 47.5 29.5687 47.5 30.875C47.5 32.1812 46.4313 33.25 45.125 33.25H42.75H32.0625C29.5984 33.25 27.2086 33.532 24.893 34.0516C21.0484 34.9273 17.4859 36.4859 14.2945 38.6086C5.68516 44.3531 0 54.1648 0 65.3125V67.6875C0 69.6617 1.58828 71.25 3.5625 71.25C5.53672 71.25 7.125 69.6617 7.125 67.6875V65.3125C7.125 58.0836 10.1977 51.582 15.1109 47.025C18.05 58.232 28.2477 66.5 40.375 66.5H40.5234C60.132 66.3961 76 47.0695 76 23.2453C76 16.9219 74.8867 10.9102 72.868 5.49218C72.482 4.46797 70.9828 4.5125 70.4633 5.47734C67.6727 10.7023 62.1508 14.25 55.8125 14.25H40.375Z" fill="#77E9CB"/>
</svg>
