<svg width="76" height="76" viewBox="0 0 76 76" fill="none" xmlns="http://www.w3.org/2000/svg">
<g clip-path="url(#clip0_8_79)">
<path d="M61.75 30.875C61.75 37.6883 59.5383 43.982 55.8125 49.0883L74.6047 67.8953C76.4602 69.7508 76.4602 72.7641 74.6047 74.6195C72.7492 76.475 69.7359 76.475 67.8805 74.6195L49.0883 55.8125C43.982 59.5531 37.6883 61.75 30.875 61.75C13.8195 61.75 0 47.9305 0 30.875C0 13.8195 13.8195 0 30.875 0C47.9305 0 61.75 13.8195 61.75 30.875ZM30.875 52.25C33.682 52.25 36.4615 51.6971 39.0549 50.6229C41.6482 49.5487 44.0046 47.9743 45.9894 45.9894C47.9743 44.0046 49.5487 41.6482 50.6229 39.0549C51.6971 36.4615 52.25 33.682 52.25 30.875C52.25 28.068 51.6971 25.2885 50.6229 22.6951C49.5487 20.1018 47.9743 17.7454 45.9894 15.7606C44.0046 13.7757 41.6482 12.2013 39.0549 11.1271C36.4615 10.0529 33.682 9.5 30.875 9.5C28.068 9.5 25.2885 10.0529 22.6951 11.1271C20.1018 12.2013 17.7454 13.7757 15.7606 15.7606C13.7757 17.7454 12.2013 20.1018 11.1271 22.6951C10.0529 25.2885 9.5 28.068 9.5 30.875C9.5 33.682 10.0529 36.4615 11.1271 39.0549C12.2013 41.6482 13.7757 44.0046 15.7606 45.9894C17.7454 47.9743 20.1018 49.5487 22.6951 50.6229C25.2885 51.6971 28.068 52.25 30.875 52.25Z" fill="#343F52"/>
</g>
<defs>
<clipPath id="clip0_8_79">
<rect width="76" height="76" fill="white"/>
</clipPath>
</defs>
</svg>
